<svg width="41" height="41" viewBox="0 0 41 41" fill="none" xmlns="http://www.w3.org/2000/svg">
<g clip-path="url(#clip0)">
<path d="M24.1444 13.1851C20.6556 13.1851 17.7886 16.0126 17.7886 19.5299V29.4609C17.7886 29.8402 18.0995 30.1506 18.4794 30.1506H22.0718C22.4518 30.1506 22.7627 29.8402 22.7627 29.4609V19.8057C22.7627 19.0471 23.3844 18.4264 24.1444 18.4264C24.9043 18.4264 25.5261 19.0471 25.5261 19.8057V29.4609C25.5261 29.8402 25.8369 30.1506 26.2169 30.1506H29.8093C30.1893 30.1506 30.5001 29.8402 30.5001 29.4609V19.5299C30.5001 16.0471 27.6677 13.1851 24.1444 13.1851Z" fill="white"/>
<path d="M14.7832 16.4264H11.1908C10.8109 16.4264 10.5 16.7367 10.5 17.116V29.4609C10.5 29.8402 10.8109 30.1505 11.1908 30.1505H14.7832C15.1632 30.1505 15.4741 29.8402 15.4741 29.4609V17.116C15.4741 16.7367 15.1632 16.4264 14.7832 16.4264Z" fill="white"/>
<path d="M12.987 10.1505C11.6054 10.1505 10.5 11.254 10.5 12.6333C10.5 14.0126 11.6054 15.116 12.987 15.116C14.3687 15.116 15.4741 14.0126 15.4741 12.6333C15.4741 11.254 14.3687 10.1505 12.987 10.1505Z" fill="white"/>
</g>
<defs>
<clipPath id="clip0">
<rect width="20" height="20" fill="white" transform="translate(10.5 10.1505)"/>
</clipPath>
</defs>
</svg>
