<svg width="41" height="41" viewBox="0 0 41 41" fill="none" xmlns="http://www.w3.org/2000/svg">
<g clip-path="url(#clip0)">
<path d="M19.964 30.1505C24.6607 30.1505 27.5832 26.6897 27.5832 22.2247C27.5832 20.5413 27.309 19.0213 25.3982 18.5647C25.8632 17.2913 27.2048 13.608 27.2048 12.428C27.2048 11.3888 26.5798 10.518 25.4657 10.518C23.6898 10.518 22.0982 15.6622 21.5998 16.8888C21.214 15.7755 19.4073 10.1505 17.8148 10.1505C16.5773 10.1505 15.9965 11.0447 15.9965 12.1697C15.9965 13.5488 17.3573 17.123 17.8507 18.498C17.6007 18.408 17.3298 18.3297 17.054 18.3297C16.1223 18.3297 15.1315 19.4663 15.1315 20.3847C15.1315 20.7322 15.3265 21.2205 15.4498 21.5447C13.9815 21.9355 13.4165 22.8963 13.4165 24.3455C13.4123 27.1655 16.1357 30.1505 19.964 30.1505ZM23.989 14.3697C24.149 13.8888 24.829 11.858 25.4657 11.858C25.8082 11.858 25.8998 12.2055 25.8998 12.483C25.8998 13.2288 24.364 17.3505 24.0248 18.2638L22.6715 18.0297L23.989 14.3697ZM17.2465 12.038V12.0372C17.2465 11.5722 17.824 10.2522 19.089 13.8772L20.4665 17.7955C19.8457 17.7447 19.364 17.678 19.0582 17.8505C18.624 16.7255 17.2465 13.1747 17.2465 12.038ZM17.1548 19.6813L17.1557 19.6822C18.3215 19.6822 19.8265 23.3772 19.8265 23.8772C19.8265 24.0763 19.6315 24.3222 19.4048 24.3222C18.5723 24.3222 16.3432 21.318 16.3432 20.5055C16.3465 20.2047 16.8482 19.6813 17.1548 19.6813ZM15.8148 22.7397C16.2682 22.7397 17.9757 25.0955 17.9757 25.5955C17.9757 25.7872 17.669 25.9197 17.5107 25.9197C16.8698 25.9197 16.619 25.3138 15.4773 23.9122C14.2948 25.0722 16.2932 27.3063 17.7982 27.3063C18.8365 27.3063 19.5132 26.3613 19.3107 25.6655C19.4582 25.6655 19.6407 25.6772 19.7765 25.6422C19.8207 26.7005 20.139 27.9622 21.4365 28.0522C21.4365 28.0172 21.5165 27.7747 21.5165 27.763C21.5165 27.083 21.0948 26.4897 21.0948 25.798C21.0948 24.6922 21.9582 23.6222 22.834 22.9972C23.1523 22.763 23.539 22.618 23.9123 22.4855C24.299 22.3413 24.709 22.173 25.0023 21.8838C24.9582 21.4463 24.7757 21.0597 24.3298 21.0597C23.2273 21.0597 19.5298 21.2163 19.5298 19.5088C19.5298 19.2472 19.534 18.9972 20.2232 18.9972C21.509 18.9972 24.7732 19.3097 25.7282 20.1338C26.4482 20.763 26.6957 24.5555 24.494 26.958L24.4915 26.9588C23.3332 28.2088 21.8523 28.8572 20.1248 28.8572C17.7607 28.8572 15.8932 27.5838 14.994 25.408C14.3132 23.713 15.1457 22.7397 15.8148 22.7397ZM20.5657 22.0363C20.9532 22.158 21.3507 22.1938 21.749 22.2713C21.454 22.4822 21.1923 22.7405 20.9407 23.0172C20.829 22.6855 20.6932 22.3613 20.5657 22.0363Z" fill="white"/>
</g>
<defs>
<clipPath id="clip0">
<rect width="20" height="20" fill="white" transform="translate(10.5 10.1505)"/>
</clipPath>
</defs>
</svg>
