<svg width="41" height="41" viewBox="0 0 41 41" fill="none" xmlns="http://www.w3.org/2000/svg">
<g clip-path="url(#clip0)">
<g clip-path="url(#clip1)">
<path d="M30.2665 10.5202C29.9331 10.1215 29.3665 10.0218 28.9331 10.3208L26.9998 11.6497C26.0998 10.6863 24.8331 10.1547 23.4665 10.1547C20.7665 10.1547 18.5331 12.3474 18.5331 15.0716C18.5331 15.4703 18.5665 15.8358 18.6665 16.2012C16.3331 15.7029 14.9331 14.0085 14.3998 10.952C14.3331 10.5534 14.0331 10.2544 13.6331 10.1547C13.2665 10.055 12.8665 10.2212 12.6331 10.5202C12.5665 10.5866 7.06646 18.2278 15.0331 24.7062C14.2665 26.3341 11.9665 27.7294 11.0665 28.1945C10.6331 28.3939 10.4331 28.859 10.5331 29.3241C10.6331 29.7892 11.0331 30.0882 11.4998 30.0882H13.2331C23.3665 30.0882 27.9665 25.0716 28.0665 13.8424L30.1665 11.8491C30.5665 11.5168 30.5998 10.9188 30.2665 10.5202Z" fill="white"/>
</g>
</g>
<defs>
<clipPath id="clip0">
<rect width="20" height="20" fill="white" transform="translate(10.5 10.1505)"/>
</clipPath>
<clipPath id="clip1">
<rect width="20" height="19.9667" fill="white" transform="translate(10.5 10.1218)"/>
</clipPath>
</defs>
</svg>
